<svg width="512" height="512" viewBox="0 0 512 512" fill="none" xmlns="http://www.w3.org/2000/svg">
  <rect width="512" height="512" rx="64" fill="#3b82f6"/>
  <g transform="translate(64, 64)">
    <!-- Medical cross -->
    <rect x="172" y="86" width="40" height="212" fill="white" rx="6"/>
    <rect x="106" y="152" width="172" height="40" fill="white" rx="6"/>
    
    <!-- Heart symbol -->
    <path d="M256 128c-21-42-85-42-85 0s64 85 85 128c21-43 85-85 85-128s-64-42-85 0z" fill="#ef4444"/>
    
    <!-- Stethoscope -->
    <circle cx="85" cy="256" r="21" fill="white" stroke="#3b82f6" stroke-width="6"/>
    <path d="M85 235 Q85 192 128 192 Q171 192 171 235" stroke="white" stroke-width="8" fill="none"/>
    <circle cx="128" cy="192" r="11" fill="white"/>
    <circle cx="171" cy="235" r="11" fill="white"/>
    
    <!-- Pills -->
    <ellipse cx="341" cy="256" rx="21" ry="32" fill="#10b981" transform="rotate(45 341 256)"/>
    <ellipse cx="341" cy="256" rx="21" ry="16" fill="#34d399" transform="rotate(45 341 256)"/>
    
    <!-- Exercise dumbbell -->
    <rect x="299" y="341" width="85" height="11" fill="white" rx="5"/>
    <rect x="288" y="331" width="21" height="32" fill="white" rx="5"/>
    <rect x="341" y="331" width="21" height="32" fill="white" rx="5"/>
    
    <!-- DNA helix -->
    <path d="M64 320 Q96 304 128 320 Q160 336 192 320" stroke="#10b981" stroke-width="4" fill="none"/>
    <path d="M64 336 Q96 352 128 336 Q160 320 192 336" stroke="#34d399" stroke-width="4" fill="none"/>
    <circle cx="64" cy="320" r="3" fill="#10b981"/>
    <circle cx="128" cy="320" r="3" fill="#10b981"/>
    <circle cx="192" cy="320" r="3" fill="#10b981"/>
    <circle cx="64" cy="336" r="3" fill="#34d399"/>
    <circle cx="128" cy="336" r="3" fill="#34d399"/>
    <circle cx="192" cy="336" r="3" fill="#34d399"/>
    
    <!-- Activity monitor line -->
    <path d="M256 320 L272 320 L280 304 L288 336 L296 288 L304 352 L312 320 L328 320" stroke="#ef4444" stroke-width="4" fill="none"/>
  </g>
  
  <!-- App name -->
  <text x="256" y="448" text-anchor="middle" fill="white" font-family="Arial, sans-serif" font-size="32" font-weight="bold">LP ASSISTANT</text>
  <text x="256" y="480" text-anchor="middle" fill="#93c5fd" font-family="Arial, sans-serif" font-size="18">Healthcare Assistant</text>
</svg>